<svg width="24" height="18" viewBox="0 0 24 18" fill="none" xmlns="http://www.w3.org/2000/svg">
<g clip-path="url(#clip0_7355_24026)">
<g clip-path="url(#clip1_7355_24026)">
<g clip-path="url(#clip2_7355_24026)">
<path d="M0 0H24V18H0V0Z" fill="#E41E20"/>
<path d="M10.2034 3.49929C10.0284 3.49629 9.73789 3.55509 9.74438 3.68941C9.25688 3.60586 9.2061 3.80724 9.23475 3.98641C9.28114 3.91531 9.33761 3.87669 9.381 3.86941C9.44603 3.85861 9.51405 3.87961 9.5835 3.92229C9.65299 3.96496 9.72952 4.03381 9.7635 4.07641C9.59145 4.11755 9.45851 4.09104 9.32363 4.06741C9.25714 4.05579 9.1641 4.01836 9.10875 3.97966C9.05344 3.94092 9.036 3.90451 8.949 3.81541C8.84644 3.71041 8.73724 3.73992 8.77125 3.90316C8.84992 4.05474 8.98136 4.12235 9.147 4.14954C9.22673 4.16266 9.34545 4.19101 9.48 4.19116C9.61463 4.19131 9.76567 4.17166 9.84787 4.18891C9.79849 4.21992 9.74261 4.27336 9.63188 4.29466C9.5193 4.3163 9.34811 4.22769 9.24375 4.20354C9.25703 4.29129 9.36776 4.37341 9.58575 4.41616C9.94403 4.49416 10.2417 4.55341 10.4385 4.66029C10.6353 4.76716 10.7594 4.90085 10.848 5.00566C11.0244 5.21416 11.0336 5.37429 11.0449 5.40954C11.0812 5.74272 10.965 5.93019 10.749 5.98779C10.641 6.01659 10.4492 5.96236 10.3789 5.87979C10.3086 5.79729 10.2401 5.65535 10.2596 5.43316C10.2786 5.34597 10.3783 5.11891 10.2934 5.07204C9.90236 4.85592 9.4275 4.63741 9.084 4.50729C8.99014 4.47174 8.91277 4.59935 8.88262 4.64904C8.29905 4.57797 7.77285 4.18306 7.536 3.76254C7.37475 3.47615 7.10887 3.76314 7.1535 4.03366C7.22569 4.33561 7.45575 4.55394 7.73175 4.70866C8.01506 4.86466 8.36917 5.01815 8.72737 5.01016C8.92039 5.04669 8.91847 5.29636 8.68687 5.34316C8.23399 5.34605 7.87267 5.33472 7.5315 5.00566C7.27275 4.76941 7.1271 5.05092 7.20188 5.21041C7.32863 5.70211 8.0301 5.83981 8.73975 5.68066C9.01455 5.63517 8.85 5.92966 8.77237 5.93266C8.47586 6.14529 7.94501 6.3533 7.4775 5.93041C7.26356 5.76661 7.11893 5.90431 7.1985 6.14079C7.40595 6.75736 8.19945 6.62791 8.74425 6.32416C8.8845 6.24601 9.01174 6.42785 8.841 6.56604C8.16349 7.03944 7.82475 7.04484 7.51912 6.86304C7.13655 6.71214 7.10288 7.13652 7.33013 7.27591C7.58273 7.43086 8.22547 7.31469 8.697 7.01829C8.89913 6.86799 8.90831 7.10304 8.78025 7.19604C8.22067 7.67964 8.0001 7.80699 7.41675 7.72816C7.12751 7.70566 7.13183 8.06229 7.35938 8.20179C7.67006 8.39229 8.27678 8.07605 8.74763 7.68541C8.94581 7.57951 8.97836 7.75317 8.88037 7.95879C8.59267 8.32179 8.32264 8.5358 8.0625 8.63491C7.8024 8.73402 7.5522 8.71824 7.37512 8.65741C7.15912 8.58316 7.13205 8.80767 7.25137 9.01179C7.32337 9.13479 7.6215 9.17424 7.94325 9.06016C8.26508 8.94605 8.61056 8.67841 8.84775 8.36491C9.05415 8.18416 9.0285 8.42694 8.93438 8.59779C8.4594 9.34869 8.025 9.62724 7.45275 9.57991C7.19906 9.53679 7.14143 9.73411 7.30313 9.91629C7.58708 10.1518 7.94213 10.1444 8.25263 9.91179C8.5287 9.64561 9.05681 9.07254 9.33375 8.76541C9.52894 8.60979 9.59126 8.76316 9.534 9.07929C9.48195 9.26026 9.35156 9.45091 8.99625 9.59004C8.75355 9.72856 8.9358 9.91947 9.11775 9.92304C9.21788 9.92491 9.4212 9.80791 9.57675 9.63279C9.78139 9.40235 9.79358 9.24766 9.90638 8.88916C10.013 8.71441 10.2034 8.79594 10.2034 8.97916C10.1121 9.33826 10.0336 9.40265 9.849 9.54954C9.67245 9.71529 9.972 9.77056 10.0729 9.70254C10.3648 9.50566 10.4715 9.25115 10.569 9.01966C10.6394 8.85256 10.8437 8.93356 10.749 9.20641C10.5227 9.85846 10.1509 10.1152 9.50025 10.247C9.43432 10.2587 9.39412 10.2977 9.417 10.3742C9.50437 10.4648 9.59182 10.547 9.67912 10.6374C9.27682 10.7545 8.94997 10.8203 8.54737 10.9378C8.34986 10.8083 8.1903 10.6984 7.99275 10.5688C7.94063 10.447 7.9164 10.2612 7.62488 10.3922C7.42736 10.3009 7.33624 10.3344 7.22663 10.4259C7.38488 10.4318 7.45372 10.4742 7.51575 10.5463C7.59675 10.7597 7.7835 10.7803 7.97475 10.7195C8.09914 10.8243 8.1654 10.9047 8.28975 11.0098C8.05762 11.0018 7.89585 10.9977 7.66425 10.9907C7.44319 10.7533 7.26675 10.7663 7.1085 10.9524C6.9879 10.9709 6.93675 10.9736 6.85425 11.12C6.984 11.0668 7.06575 11.0508 7.122 11.1088C7.35705 11.2451 7.51057 11.2146 7.62713 11.1088C7.85389 11.1227 8.05823 11.1344 8.28525 11.1493C8.20185 11.2202 8.0874 11.2578 8.004 11.3293C7.66343 11.2319 7.48568 11.363 7.42575 11.6409C7.38011 11.7531 7.35874 11.8685 7.3785 11.9885C7.4115 11.8788 7.46449 11.7845 7.56187 11.7253C7.86544 11.8024 7.97962 11.6785 7.99612 11.4969C8.14245 11.3775 8.3631 11.3512 8.50913 11.2303C8.67986 11.285 8.76244 11.3188 8.93438 11.3732C8.9955 11.559 9.13387 11.6325 9.3585 11.5847C9.62587 11.5931 9.5787 11.7028 9.60038 11.7905C9.67144 11.6645 9.66945 11.5419 9.50475 11.4305C9.44483 11.2678 9.31207 11.1937 9.138 11.2877C8.97412 11.2412 8.93111 11.1743 8.76787 11.1279C9.18075 10.9963 9.47363 10.9667 9.88613 10.8354C9.9894 10.9328 10.0712 11.0028 10.1753 11.0897C10.2301 11.1224 10.2826 11.1306 10.3147 11.0897C10.5733 10.7155 10.6887 10.3858 10.929 10.139C11.0208 10.037 11.1368 9.89926 11.2654 9.86566C11.3297 9.8489 11.4086 9.85914 11.4589 9.91404C11.5092 9.96897 11.5488 10.0702 11.532 10.2212C11.5079 10.4379 11.4556 10.5063 11.3947 10.6363C11.334 10.7663 11.2596 10.8462 11.1833 10.9457C11.0305 11.1447 10.8289 11.2605 10.7096 11.3383C10.4711 11.4939 10.3701 11.4258 10.1854 11.4159C9.94661 11.4427 9.88313 11.559 10.0785 11.7197C10.2612 11.8147 10.4254 11.8265 10.5589 11.8018C10.6735 11.7806 10.8076 11.6327 10.9031 11.5532C11.0107 11.4289 11.189 11.5763 11.0674 11.7208C10.8464 11.9834 10.6255 12.1565 10.353 12.1528C10.0666 12.1913 10.1202 12.3523 10.3103 12.4307C10.6523 12.5718 10.9611 12.3074 11.118 12.1337C11.2391 12.0013 11.325 11.996 11.3036 12.2012C11.1835 12.5724 11.0193 12.7159 10.7513 12.7344C10.5339 12.7142 10.5315 12.882 10.6905 12.9954C11.0527 13.2461 11.3149 12.8192 11.4375 12.5612C11.5249 12.3284 11.6587 12.4391 11.6726 12.6309C11.6745 12.8872 11.5586 13.0965 11.2485 13.3588C11.4858 13.7369 11.7624 14.1214 12 14.5007L12.7202 6.47967L12.0002 5.2124C11.9252 5.14314 11.6716 4.84434 11.6053 4.8029C11.5812 4.77702 11.5665 4.7588 11.6019 4.74552C11.6363 4.73262 11.7167 4.71815 11.7707 4.7084C11.618 4.5554 11.4872 4.50635 11.1981 4.42265C11.2686 4.39265 11.337 4.41009 11.5446 4.40015C11.4622 4.28315 11.2782 4.10405 11.0406 4.01765C11.1975 3.90605 11.2281 3.89859 11.3837 3.7679C11.1142 3.74877 10.884 3.6974 10.6524 3.62727C10.506 3.55876 10.3027 3.50064 10.2036 3.49902L10.2034 3.49929ZM10.2293 3.81316C10.3718 3.81316 10.4599 3.86199 10.4599 3.92116C10.4599 3.98139 10.3718 4.03029 10.2293 4.03029C10.0874 4.03029 9.9975 3.97692 9.9975 3.91666C9.9975 3.85749 10.0874 3.81316 10.2293 3.81316Z" fill="black"/>
<path d="M13.7966 3.49929C13.9716 3.49629 14.2621 3.55509 14.2556 3.68941C14.7431 3.60586 14.7939 3.80724 14.7653 3.98641C14.7189 3.91531 14.6624 3.87669 14.619 3.86941C14.554 3.85861 14.486 3.87961 14.4165 3.92229C14.347 3.96496 14.2705 4.03381 14.2365 4.07641C14.4086 4.11755 14.5415 4.09104 14.6764 4.06741C14.7429 4.05579 14.8359 4.01836 14.8913 3.97966C14.9466 3.94092 14.964 3.90451 15.051 3.81541C15.1536 3.71041 15.2628 3.73992 15.2288 3.90316C15.1501 4.05474 15.0186 4.12235 14.853 4.14954C14.7733 4.16266 14.6546 4.19101 14.52 4.19116C14.3854 4.19131 14.2343 4.17166 14.1521 4.18891C14.2015 4.21992 14.2574 4.27336 14.3681 4.29466C14.4807 4.3163 14.6519 4.22769 14.7563 4.20354C14.743 4.29129 14.6322 4.37341 14.4143 4.41616C14.056 4.49416 13.7583 4.55341 13.5615 4.66029C13.3647 4.76716 13.2406 4.90085 13.152 5.00566C12.9756 5.21416 12.9664 5.37429 12.9551 5.40954C12.9188 5.74272 13.035 5.93019 13.251 5.98779C13.359 6.01659 13.5508 5.96236 13.6211 5.87979C13.6914 5.79729 13.7599 5.65535 13.7404 5.43316C13.7214 5.34597 13.6217 5.11891 13.7066 5.07204C14.0976 4.85592 14.5725 4.63741 14.916 4.50729C15.0099 4.47174 15.0872 4.59935 15.1174 4.64904C15.701 4.57797 16.2272 4.18306 16.464 3.76254C16.6253 3.47615 16.8911 3.76314 16.8465 4.03366C16.7743 4.33561 16.5443 4.55394 16.2683 4.70866C15.9849 4.86466 15.6308 5.01815 15.2726 5.01016C15.0796 5.04669 15.0815 5.29636 15.3131 5.34316C15.766 5.34605 16.1273 5.33472 16.4685 5.00566C16.7273 4.76941 16.8729 5.05092 16.7981 5.21041C16.6714 5.70211 15.9699 5.83981 15.2603 5.68066C14.9855 5.63517 15.15 5.92966 15.2276 5.93266C15.5241 6.14529 16.055 6.3533 16.5225 5.93041C16.7364 5.76661 16.8811 5.90431 16.8015 6.14079C16.5941 6.75736 15.8006 6.62791 15.2558 6.32416C15.1155 6.24601 14.9883 6.42785 15.159 6.56604C15.8365 7.03944 16.1753 7.04484 16.4809 6.86304C16.8635 6.71214 16.8971 7.13652 16.6699 7.27591C16.4173 7.43086 15.7745 7.31469 15.303 7.01829C15.1009 6.86799 15.0917 7.10304 15.2198 7.19604C15.7793 7.67964 15.9999 7.80699 16.5833 7.72816C16.8725 7.70566 16.8682 8.06229 16.6406 8.20179C16.3299 8.39229 15.7232 8.07605 15.2524 7.68541C15.0542 7.57951 15.0216 7.75317 15.1196 7.95879C15.4073 8.32179 15.6774 8.5358 15.9375 8.63491C16.1976 8.73402 16.4478 8.71824 16.6249 8.65741C16.8409 8.58316 16.868 8.80767 16.7486 9.01179C16.6766 9.13479 16.3785 9.17424 16.0568 9.06016C15.7349 8.94605 15.3894 8.67841 15.1523 8.36491C14.9459 8.18416 14.9715 8.42694 15.0656 8.59779C15.5406 9.34869 15.975 9.62724 16.5473 9.57991C16.8009 9.53679 16.8586 9.73411 16.6969 9.91629C16.4129 10.1518 16.0579 10.1444 15.7474 9.91179C15.4713 9.64561 14.9432 9.07254 14.6663 8.76541C14.4711 8.60979 14.4087 8.76316 14.466 9.07929C14.5181 9.26026 14.6484 9.45091 15.0038 9.59004C15.2465 9.72856 15.0642 9.91947 14.8823 9.92304C14.7821 9.92491 14.5788 9.80791 14.4233 9.63279C14.2186 9.40235 14.2064 9.24766 14.0936 8.88916C13.987 8.71441 13.7966 8.79594 13.7966 8.97916C13.8879 9.33826 13.9664 9.40265 14.151 9.54954C14.3276 9.71529 14.028 9.77056 13.9271 9.70254C13.6352 9.50566 13.5285 9.25115 13.431 9.01966C13.3606 8.85256 13.1563 8.93356 13.251 9.20641C13.4773 9.85846 13.8491 10.1152 14.4998 10.247C14.5657 10.2587 14.6059 10.2977 14.583 10.3742C14.4956 10.4648 14.4082 10.547 14.3209 10.6374C14.7232 10.7545 15.05 10.8203 15.4526 10.9378C15.6501 10.8083 15.8097 10.6984 16.0073 10.5688C16.0594 10.447 16.0836 10.2612 16.3751 10.3922C16.5726 10.3009 16.6638 10.3344 16.7734 10.4259C16.6151 10.4318 16.5463 10.4742 16.4843 10.5463C16.4033 10.7597 16.2165 10.7803 16.0253 10.7195C15.9009 10.8243 15.8346 10.9047 15.7103 11.0098C15.9424 11.0018 16.1042 10.9977 16.3358 10.9907C16.5568 10.7533 16.7333 10.7663 16.8915 10.9524C17.0121 10.9709 17.0633 10.9736 17.1458 11.12C17.016 11.0668 16.9343 11.0508 16.878 11.1088C16.643 11.2451 16.4894 11.2146 16.3729 11.1088C16.1461 11.1227 15.9418 11.1344 15.7148 11.1493C15.7982 11.2202 15.9126 11.2578 15.996 11.3293C16.3366 11.2319 16.5143 11.363 16.5743 11.6409C16.6199 11.7531 16.6413 11.8685 16.6215 11.9885C16.5885 11.8788 16.5355 11.7845 16.4381 11.7253C16.1346 11.8024 16.0204 11.6785 16.0039 11.4969C15.8576 11.3775 15.6369 11.3512 15.4909 11.2303C15.3201 11.285 15.2376 11.3188 15.0656 11.3732C15.0045 11.559 14.8661 11.6325 14.6415 11.5847C14.3741 11.5931 14.4213 11.7028 14.3996 11.7905C14.3286 11.6645 14.3306 11.5419 14.4953 11.4305C14.5552 11.2678 14.6879 11.1937 14.862 11.2877C15.0259 11.2412 15.0689 11.1743 15.2321 11.1279C14.8193 10.9963 14.5264 10.9667 14.1139 10.8354C14.0106 10.9328 13.9288 11.0028 13.8248 11.0897C13.7699 11.1224 13.7174 11.1306 13.6853 11.0897C13.4267 10.7155 13.3113 10.3858 13.071 10.139C12.9792 10.037 12.8633 9.89926 12.7346 9.86566C12.6703 9.8489 12.5915 9.85914 12.5411 9.91404C12.4908 9.96897 12.4512 10.0702 12.468 10.2212C12.4921 10.4379 12.5444 10.5063 12.6053 10.6363C12.666 10.7663 12.7404 10.8462 12.8168 10.9457C12.9695 11.1447 13.1711 11.2605 13.2904 11.3383C13.529 11.4939 13.6299 11.4258 13.8146 11.4159C14.0534 11.4427 14.1169 11.559 13.9215 11.7197C13.7388 11.8147 13.5746 11.8265 13.4411 11.8018C13.3265 11.7806 13.1924 11.6327 13.0969 11.5532C12.9893 11.4289 12.811 11.5763 12.9326 11.7208C13.1536 11.9834 13.3745 12.1565 13.647 12.1528C13.9334 12.1913 13.8798 12.3523 13.6898 12.4307C13.3478 12.5718 13.0389 12.3074 12.882 12.1337C12.761 12.0013 12.675 11.996 12.6964 12.2012C12.8165 12.5724 12.9807 12.7159 13.2488 12.7344C13.4661 12.7142 13.4685 12.882 13.3095 12.9954C12.9473 13.2461 12.6851 12.8192 12.5625 12.5612C12.4751 12.3284 12.3413 12.4391 12.3274 12.6309C12.3255 12.8872 12.4414 13.0965 12.7515 13.3588C12.5142 13.7369 12.2376 14.1214 12 14.5007L11.2798 6.47967L11.9998 5.2124C12.0748 5.14314 12.3284 4.84434 12.3947 4.8029C12.4188 4.77702 12.4335 4.7588 12.3981 4.74552C12.3637 4.73262 12.2833 4.71815 12.2293 4.7084C12.382 4.5554 12.5128 4.50635 12.8019 4.42265C12.7314 4.39265 12.663 4.41009 12.4554 4.40015C12.5378 4.28315 12.7218 4.10405 12.9594 4.01765C12.8025 3.90605 12.7719 3.89859 12.6163 3.7679C12.8858 3.74877 13.116 3.6974 13.3476 3.62727C13.494 3.55876 13.6973 3.50064 13.7964 3.49902L13.7966 3.49929ZM13.7708 3.81316C13.6283 3.81316 13.5401 3.86199 13.5401 3.92116C13.5401 3.98139 13.6283 4.03029 13.7708 4.03029C13.9126 4.03029 14.0025 3.97692 14.0025 3.91666C14.0025 3.85749 13.9126 3.81316 13.7708 3.81316Z" fill="black"/>
</g>
</g>
</g>
<defs>
<clipPath id="clip0_7355_24026">
<rect width="24" height="18" rx="2" fill="white"/>
</clipPath>
<clipPath id="clip1_7355_24026">
<rect width="24" height="18" fill="white"/>
</clipPath>
<clipPath id="clip2_7355_24026">
<rect width="24" height="18" fill="white"/>
</clipPath>
</defs>
</svg>
