<svg width="26" height="20" viewBox="0 0 26 20" fill="none" xmlns="http://www.w3.org/2000/svg">
<g clip-path="url(#clip0_7318_14403)">
<mask id="mask0_7318_14403" style="mask-type:luminance" maskUnits="userSpaceOnUse" x="-1" y="0" width="28" height="21">
<path d="M-0.00863647 0H26.0608V20.0533H-0.00863647V0Z" fill="white"/>
</mask>
<g mask="url(#mask0_7318_14403)">
<path d="M-6.52597 0H32.5788V20.0537H-6.52597V0Z" fill="#000066"/>
<path d="M-6.52597 0V2.24206L28.2069 20.0538H32.5788V17.8118L-2.15407 0H-6.52597ZM32.5788 0V2.24202L-2.15407 20.0537H-6.52597V17.8117L28.2069 0H32.5788Z" fill="white"/>
<path d="M9.76768 0V20.0537H16.2851V0H9.76768ZM-6.52597 6.68458V13.3692H32.5788V6.68458H-6.52597Z" fill="white"/>
<path d="M-6.52597 8.02149V12.0322H32.5788V8.02149H-6.52597ZM11.0712 0V20.0537H14.9816V0H11.0712ZM-6.52597 20.0537L6.50895 13.3692H9.42357L-3.61135 20.0537H-6.52597ZM-6.52597 0L6.50895 6.68458H3.59433L-6.52597 1.49476V0ZM16.6292 6.68458L29.6642 0H32.5788L19.5439 6.68458H16.6292ZM32.5788 20.0537L19.5439 13.3692H22.4585L32.5788 18.559V20.0537Z" fill="#CC0000"/>
</g>
</g>
<defs>
<clipPath id="clip0_7318_14403">
<rect width="26" height="20" fill="white"/>
</clipPath>
</defs>
</svg>
