<svg width="26" height="20" viewBox="0 0 26 20" fill="none" xmlns="http://www.w3.org/2000/svg">
<g clip-path="url(#clip0_9943_40066)">
<mask id="mask0_9943_40066" style="mask-type:luminance" maskUnits="userSpaceOnUse" x="-1" y="0" width="28" height="21">
<path d="M-0.00863647 0H26.0608V20.0533H-0.00863647V0Z" fill="white"/>
</mask>
<g mask="url(#mask0_9943_40066)">
<path d="M-6.52599 0H32.5788V20.0537H-6.52599V0Z" fill="#000066"/>
<path d="M-6.52599 0V2.24206L28.2069 20.0538H32.5788V17.8118L-2.15409 0H-6.52599ZM32.5788 0V2.24202L-2.15409 20.0537H-6.52599V17.8117L28.2069 0H32.5788Z" fill="white"/>
<path d="M9.76767 0V20.0537H16.2851V0H9.76767ZM-6.52599 6.68458V13.3692H32.5788V6.68458H-6.52599Z" fill="white"/>
<path d="M-6.52599 8.02149V12.0322H32.5788V8.02149H-6.52599ZM11.0712 0V20.0537H14.9816V0H11.0712ZM-6.52599 20.0537L6.50893 13.3692H9.42356L-3.61136 20.0537H-6.52599ZM-6.52599 0L6.50893 6.68458H3.59431L-6.52599 1.49476V0ZM16.6292 6.68458L29.6642 0H32.5788L19.5439 6.68458H16.6292ZM32.5788 20.0537L19.5439 13.3692H22.4585L32.5788 18.559V20.0537Z" fill="#CC0000"/>
</g>
</g>
<defs>
<clipPath id="clip0_9943_40066">
<rect width="26" height="20" fill="white"/>
</clipPath>
</defs>
</svg>
