<svg width="24" height="24" viewBox="0 0 24 24" fill="none" xmlns="http://www.w3.org/2000/svg">
<path d="M21.1083 21.9469H14.6115C14.1444 21.9469 13.7622 21.5648 13.7622 21.0977V17.0637C13.7622 16.0446 12.9554 15.2378 11.9363 15.2378C10.9172 15.2378 10.1104 16.0446 10.1104 17.0637V21.0977C10.1104 21.5648 9.72824 21.9469 9.26115 21.9469H2.84926C2.38217 21.9469 2 21.5648 2 21.0977V10.2272C2 9.46285 2.38217 8.74098 2.97665 8.31635L11.5117 2.15924C11.8089 1.94692 12.1911 1.94692 12.4883 2.15924L21.0234 8.31635C21.6178 8.74098 22 9.46285 22 10.2272V21.1401C21.9575 21.5648 21.5754 21.9469 21.1083 21.9469ZM15.4607 20.2909H20.3015V10.2272C20.3015 10.0149 20.1741 9.80255 20.0042 9.67516L11.9788 3.85775L3.95329 9.6327C3.78344 9.76009 3.65605 9.9724 3.65605 10.1847V20.2484H8.49682V17.0637C8.49682 15.1529 10.0679 13.5817 11.9788 13.5817C13.8896 13.5817 15.4607 15.1529 15.4607 17.0637V20.2909Z" fill="black"/>
</svg>
