<svg width="28" height="24" viewBox="0 0 28 24" fill="none" xmlns="http://www.w3.org/2000/svg">
<path d="M14.938 1.93151C12.5535 1.93551 10.2678 2.88451 8.58176 4.57058C6.89568 6.25666 5.94669 8.54232 5.94269 10.9268C5.94468 13.3133 6.89255 15.6016 8.57863 17.2906C10.2647 18.9795 12.5515 19.9312 14.938 19.9372C17.0545 19.9372 19.0047 19.1926 20.5468 17.9605L24.2923 21.706C24.482 21.8824 24.7328 21.9785 24.9918 21.9739C25.2509 21.9694 25.4981 21.8646 25.6816 21.6817C25.865 21.4987 25.9704 21.2518 25.9757 20.9927C25.9809 20.7337 25.8855 20.4827 25.7096 20.2925L21.9641 16.5432C23.2433 14.9522 23.9407 12.972 23.9408 10.9306C23.9408 5.97183 19.8967 1.93151 14.938 1.93151ZM14.938 3.93466C18.8158 3.93466 21.9376 7.05277 21.9376 10.9268C21.9376 14.8008 18.8158 17.9378 14.938 17.9378C11.0602 17.9378 7.94206 14.8121 7.94206 10.9343C7.94206 7.05655 11.0602 3.93466 14.938 3.93466Z" fill="#FF2500"/>
<g clip-path="url(#clip0_7685_15424)">
<path d="M19.6526 19.9807L15.8081 16.1362C16.9805 14.6078 17.6148 12.7349 17.6124 10.8087C17.6124 8.45552 16.696 6.24402 15.0322 4.58021C14.2162 3.75966 13.2456 3.10911 12.1765 2.66622C11.1073 2.22333 9.96098 1.9969 8.80376 2.00003C6.45119 2.00003 4.23969 2.9164 2.57529 4.58021C-0.85843 8.01453 -0.85843 13.6028 2.57529 17.0372C3.39127 17.8577 4.36193 18.5083 5.43105 18.9512C6.50018 19.3941 7.64654 19.6205 8.80376 19.6173C10.7562 19.6173 12.6062 18.9778 14.1319 17.8125L17.9764 21.6575C18.2075 21.8887 18.511 22.0049 18.8145 22.0049C19.118 22.0049 19.4214 21.8887 19.6526 21.6575C19.7627 21.5474 19.8501 21.4167 19.9097 21.2729C19.9693 21.129 20 20.9748 20 20.8191C20 20.6634 19.9693 20.5092 19.9097 20.3653C19.8501 20.2215 19.7627 20.0908 19.6526 19.9807ZM4.25214 15.3609C1.7419 12.8507 1.7425 8.76671 4.25214 6.25647C4.84865 5.65697 5.55812 5.1817 6.33949 4.85816C7.12087 4.53462 7.95865 4.36923 8.80436 4.37157C9.64997 4.36925 10.4877 4.53464 11.2689 4.85818C12.0502 5.18172 12.7596 5.65698 13.356 6.25647C13.9556 6.85289 14.4311 7.56233 14.7547 8.34372C15.0783 9.1251 15.2438 9.96293 15.2415 10.8087C15.2415 12.5282 14.5717 14.1446 13.356 15.3609C12.1403 16.5772 10.5239 17.2458 8.80376 17.2458C7.08483 17.2458 5.46784 16.576 4.25155 15.3609H4.25214Z" fill="#FF2500"/>
</g>
<defs>
<clipPath id="clip0_7685_15424">
<rect width="6" height="18" fill="white" transform="translate(0 2)"/>
</clipPath>
</defs>
</svg>
